<svg width="679" height="502" viewBox="0 0 679 502" fill="none" xmlns="http://www.w3.org/2000/svg">
<g clip-path="url(#clip0_1_6)">
<path d="M156.818 141.139C178.175 106.582 209.147 78.9846 245.95 61.7161C282.753 44.4475 323.796 38.2557 364.065 43.8969C404.333 49.538 442.086 66.768 472.711 93.4824C503.337 120.197 525.509 155.239 536.521 194.331L571.655 169.474C556.092 124.347 527.919 84.6123 490.466 54.9648C453.013 25.3172 407.844 6.99589 360.297 2.16583C312.75 -2.66423 264.812 6.1988 222.148 27.7076C179.484 49.2165 143.877 82.4721 119.534 123.545L156.818 141.037V141.139ZM550.349 378.455L513.065 361.065C491.693 395.62 460.705 423.209 423.889 440.464C387.072 457.719 346.021 463.892 305.749 458.228C265.477 452.565 227.729 435.311 197.115 408.574C166.502 381.837 144.348 346.774 133.362 307.669L98.229 332.526C113.78 377.659 141.944 417.403 179.391 447.061C216.839 476.719 262.005 495.052 309.553 499.893C357.101 504.734 405.043 495.881 447.713 474.38C490.383 452.878 525.998 419.525 550.349 378.455Z" fill="white"/>
<path d="M546.56 342.244L542.258 340.3L538.058 338.459L533.858 336.516L529.761 334.674L521.567 331.196L513.68 327.719L505.895 324.343L498.418 321.07L491.043 318.001L483.873 314.932L476.806 311.966L469.943 309.101L463.285 306.34L456.73 303.68L450.277 301.123L444.028 298.565L437.883 296.11L431.839 293.758L425.899 291.507L420.163 289.359L414.529 287.211L408.895 285.165L403.467 283.119L398.14 281.074L392.917 279.335L387.795 277.493L382.674 275.755L377.757 274.016L372.841 272.379L368.026 270.742L363.315 269.208L358.705 267.776L354.096 266.344L349.692 265.014L345.185 263.684L340.883 262.354L336.581 261.127L332.484 260.002L328.284 258.774L324.187 257.751L320.09 256.728L316.095 255.705L312.203 254.682L308.31 253.762L304.521 252.944L300.731 252.125L297.043 251.307L293.356 250.591L286.186 249.159L279.016 247.931L272.256 246.908L265.495 245.885L258.94 245.067L252.487 244.453L246.136 243.942L239.888 243.635L233.742 243.43L227.597 243.328H221.758L215.92 243.635L210.081 243.942L204.345 244.453L198.712 245.067L193.078 245.885L187.445 246.806L181.913 247.829L176.382 249.159L170.954 250.489L165.422 252.125L159.994 253.864L154.565 255.705L149.034 257.751L143.605 260.104L138.074 262.559L132.543 265.218L126.909 268.083L121.378 271.151L115.642 274.425L112.774 276.164L109.906 278.005L107.038 279.846L104.068 281.79L101.097 283.836L98.1267 285.881L95.1563 287.927L92.0834 290.178L89.113 292.53L86.0401 294.883L82.9673 297.338L79.792 299.793L76.6167 302.453L73.339 305.112L70.1637 307.976L66.7835 310.84L63.5058 313.807L60.1257 316.876L56.6431 320.047L53.1605 323.32L49.5755 326.798L45.9905 330.276L0 283.733L129.572 159.961L133.874 161.802L138.074 163.643L142.273 165.382L146.473 167.223L154.667 170.701L162.554 174.077L170.339 177.35L177.919 180.521L185.294 183.59L192.464 186.556L199.634 189.421L206.394 192.182L213.154 194.944L219.71 197.502L226.163 200.059L232.513 202.514L238.659 204.867L244.805 207.117L250.643 209.367L256.482 211.516L262.115 213.561L267.749 215.607L273.177 217.653L278.504 219.494L283.83 221.336L288.951 223.074L294.073 224.813L298.989 226.45L303.906 227.984L308.72 229.519L313.432 231.053L318.144 232.485L322.65 233.815L327.157 235.145L331.664 236.475L335.966 237.702L340.268 238.827L344.468 240.055L348.667 241.078L352.765 242.101L356.862 243.124L360.754 244.146L364.749 245.067L368.641 245.885L372.431 246.806L376.221 247.522L379.908 248.34L383.596 249.056L390.766 250.386L397.936 251.511L404.798 252.534L411.559 253.455L418.114 254.171L424.567 254.682L430.918 255.194L437.166 255.399L443.312 255.603H449.457L455.296 255.501L461.134 255.194L466.973 254.785L472.709 254.273L478.342 253.557L483.976 252.739L489.507 251.716L495.038 250.693L500.569 249.261L506.1 247.829L511.529 246.192L516.958 244.453L522.386 242.408L527.815 240.362L533.346 238.009L538.775 235.554L544.306 232.792L549.837 229.928L555.471 226.859L561.105 223.381L563.973 221.642L566.841 219.801L569.709 217.858L572.577 215.914L575.547 213.868L578.415 211.822L581.488 209.674L584.458 207.424L587.531 205.071L590.502 202.718L593.574 200.264L596.647 197.706L599.823 195.047L602.998 192.285L606.276 189.421L609.553 186.556L612.831 183.488L616.211 180.419L619.591 177.146L623.074 173.872L626.556 170.394L630.141 166.814L679 215.914L546.56 342.244Z" fill="white"/>
</g>
<defs>
<clipPath id="clip0_1_6">
<rect width="679" height="502" fill="white"/>
</clipPath>
</defs>
</svg>
